<?xml version="1.0" encoding="utf-8"?>
<!-- Generator: Adobe Illustrator 26.1.0, SVG Export Plug-In . SVG Version: 6.00 Build 0)  -->
<svg version="1.1" id="Layer_1" xmlns="http://www.w3.org/2000/svg" xmlns:xlink="http://www.w3.org/1999/xlink" x="0px" y="0px"
	 viewBox="0 0 800 800" style="enable-background:new 0 0 800 800;" xml:space="preserve">
<path d="M380.8,288c72.5,0,131.8-59.3,131.8-131.8S453.3,24.4,380.8,24.4S249,83.7,249,156.2S308.3,288,380.8,288z M644.5,514.1
	c0-53.4-31.6-100.8-80.4-121.9c-56-24.4-118-38.2-183.2-38.2s-127.2,13.8-183.2,38.2c-48.8,21.1-80.4,68.5-80.4,121.9v37.6h527.3
	V514.1z M586.2,767v-59l-410.6,0.3V767l-88-88l88-88v59l410.6-0.3V591l88,88L586.2,767z"/>
</svg>
